<svg width="1900" height="1400" xmlns="http://www.w3.org/2000/svg">
        <!-- Background -->
        <rect width="1900" height="1400" fill="#ffffff"/>
        
        
<g transform="translate(0.000000,0.000000)">
    <g class="ns" filter="url(#softShadow)">
            <rect x="0" y="0" width="640.000000" height="420.000000" rx="10.000000" fill="#e6f3ff" stroke="#333333"/>
            <rect x="0" y="0" width="640.000000" height="43.999998" rx="10.000000" ry="10.000000" fill="#e6f3ff" stroke="#333333"/>
            <rect x="100.000000" y="9.999990" width="480.000000" height="23.999976" rx="6.000000" fill="#fff" stroke="#333333" opacity="0.85"/>
            <rect x="12.000000" y="55.999986" width="616.000000" height="351.999984" rx="6.000000" fill="#ffffff" stroke="#333333" opacity="0.9"/>
    </g>
    <text x="340.000000" y="21.999978" text-anchor="middle" dominant-baseline="middle"
            font-family="-apple-system, Segoe UI, Roboto, Helvetica, Arial, sans-serif"
            font-size="25.600000" fill="#333333"></text>
    <text x="320.000000" y="231.999978" text-anchor="middle" dominant-baseline="middle"
            font-family="-apple-system, Segoe UI, Roboto, Helvetica, Arial, sans-serif"
            font-size="64" fill="#333333"></text>
    
<g transform="translate(14.000000,13.999986)">
        <circle r="6.000000" cx="0" cy="7.980000" fill="#ff5f57"/>
        <circle r="6.000000" cx="18.000000" cy="7.980000" fill="#febc2e"/>
        <circle r="6.000000" cx="36.000000" cy="7.980000" fill="#28c840"/>
</g>


</g>

<g transform="translate(400.000000,40.000000)">
    <g class="ns" filter="url(#softShadow)">
            <rect x="0" y="0" width="280.000000" height="220.000000" rx="4.375000" fill="#ecfeff" stroke="#0f172a"/>
            <rect x="0" y="0" width="280.000000" height="23.047618" rx="4.375000" ry="4.375000" fill="#ecfeff" stroke="#0f172a"/>
            <rect x="43.750000" y="5.238090" width="210.000000" height="12.571416" rx="2.625000" fill="#fff" stroke="#0f172a" opacity="0.85"/>
            <rect x="5.250000" y="29.333326" width="269.500000" height="184.380944" rx="2.625000" fill="#ffffff" stroke="#0f172a" opacity="0.9"/>
    </g>
    <text x="148.750000" y="11.523798" text-anchor="middle" dominant-baseline="middle"
            font-family="-apple-system, Segoe UI, Roboto, Helvetica, Arial, sans-serif"
            font-size="11.200000" fill="#0f172a">https://m.example.com</text>
    <text x="140.000000" y="121.523798" text-anchor="middle" dominant-baseline="middle"
            font-family="-apple-system, Segoe UI, Roboto, Helvetica, Arial, sans-serif"
            font-size="28" fill="#0f172a">Mobile</text>
    
<g transform="translate(6.125000,7.333326)">
        <circle r="2.625000" cx="0" cy="3.491250" fill="#ff5f57"/>
        <circle r="2.625000" cx="7.875000" cy="3.491250" fill="#febc2e"/>
        <circle r="2.625000" cx="15.750000" cy="3.491250" fill="#28c840"/>
</g>


</g>

<g transform="translate(40.000000,300.000000)">
        <g class="ns" filter="url(#softShadow)">
                <rect x="0" y="0" width="620.000000" height="360.000000" rx="9.687500" fill="#1e293b" stroke="#f8fafc"/>
                <rect x="0" y="0" width="620.000000" height="37.714284" rx="9.687500" ry="9.687500" fill="#1e293b" stroke="#f8fafc"/>
                <rect x="11.625000" y="47.999988" width="596.750000" height="301.714272" rx="5.812500" fill="#0f172a" stroke="#f8fafc" opacity="0.9"/>
        </g>    
        
        
        <text x="96.875000" 
                y="19.371420" 
                text-anchor="start" 
                dominant-baseline="middle"
                font-family="-apple-system, Segoe UI, Roboto, Helvetica, Arial, sans-serif"
                font-size="25.200000000000003" 
                fill="#f8fafc">prod-app-01</text>
        
<g transform="translate(13.562500,11.999988)">
        <circle r="5.812500" cx="0" cy="7.730625" fill="#ff5f57"/>
        <circle r="5.812500" cx="17.437500" cy="7.730625" fill="#febc2e"/>
        <circle r="5.812500" cx="34.875000" cy="7.730625" fill="#28c840"/>
</g>


        
</g>

<g transform="translate(720.000000,300.000000)">
        <g class="ns" filter="url(#softShadow)">
                <rect x="0" y="0" width="620.000000" height="360.000000" rx="9.687500" fill="#0f172a" stroke="#e2e8f0"/>
                <rect x="0" y="0" width="620.000000" height="37.714284" rx="9.687500" ry="9.687500" fill="#0f172a" stroke="#e2e8f0"/>
                <rect x="11.625000" y="47.999988" width="596.750000" height="301.714272" rx="5.812500" fill="#1e293b" stroke="#e2e8f0" opacity="0.9"/>
        </g>    
        
        
        <text x="96.875000" 
                y="19.371420" 
                text-anchor="start" 
                dominant-baseline="middle"
                font-family="-apple-system, Segoe UI, Roboto, Helvetica, Arial, sans-serif"
                font-size="25.200000000000003" 
                fill="#e2e8f0">async-workers</text>
        
<g transform="translate(13.562500,11.999988)">
        <circle r="5.812500" cx="0" cy="7.730625" fill="#ff5f57"/>
        <circle r="5.812500" cx="17.437500" cy="7.730625" fill="#febc2e"/>
        <circle r="5.812500" cx="34.875000" cy="7.730625" fill="#28c840"/>
</g>


        
</g>

<g transform="translate(80.000000,360.000000)">
    
    <rect x="0" y="0" width="220.000000" height="140.000000"
          rx="14.000000" ry="14.000000"
          fill="#dbeafe" stroke="#1e3a8a" stroke-width="2"/>

    
    
    
    <g transform="translate(21.000000,21.000000)">
        
        
        <rect x="0" y="0" width="98.000000" height="98.000000" fill="#00ADD8"/>
        <text x="49.000000" y="68.600000"
              fill="#ffffff" font-family="Arial" font-size="58.800000"
              text-anchor="middle">Go</text>
        
    </g>

    
    <text x="161.000000"
          y="84.000000"
          fill="#1e3a8a"
          font-family="Arial"
          font-size="56.000000"
          >api</text>

    
    <text x="199.000000"
          y="84.000000"
          fill="#1e3a8a"
          font-family="Arial"
          font-size="49.000000"
          text-anchor="end">:8080</text>
</g>

<g transform="translate(360.000000,360.000000)">
    
    <rect x="0" y="0" width="220.000000" height="140.000000"
          rx="14.000000" ry="14.000000"
          fill="#fee2e2" stroke="#991b1b" stroke-width="2"/>

    
    
    
    <g transform="translate(21.000000,21.000000)">
        
        
        <rect x="0" y="0" width="98.000000" height="98.000000" fill="#009639"/>
        <text x="49.000000" y="68.600000"
              fill="#ffffff" font-family="Arial" font-size="58.800000"
              text-anchor="middle">N</text>
        
    </g>

    
    <text x="161.000000"
          y="84.000000"
          fill="#991b1b"
          font-family="Arial"
          font-size="56.000000"
          >auth</text>

    
    <text x="199.000000"
          y="84.000000"
          fill="#991b1b"
          font-family="Arial"
          font-size="49.000000"
          text-anchor="end">:443</text>
</g>

<g transform="translate(40.000000,700.000000)">
    <rect x="0" y="0" width="360.000000" height="220.000000" rx="17.600000" ry="17.600000" fill="#111827"/>
    <rect x="0" y="0" width="360.000000" height="39.600000" rx="17.600000" ry="17.600000" fill="#f97316" opacity="0.35"/>
    
<g transform="translate(7.875000,7.333326)">
        <circle r="3.375000" cx="0" cy="4.488750" fill="#ff5f57"/>
        <circle r="3.375000" cx="10.125000" cy="4.488750" fill="#febc2e"/>
        <circle r="3.375000" cx="20.250000" cy="4.488750" fill="#28c840"/>
</g>

    <text x="180.000000" y="26.400000" text-anchor="middle" font-family="Menlo, monospace" font-size="26.400000" fill="#f9fafb" opacity="0.9">deploy</text>
    <text x="28.800000" y="99.000000" font-family="Menlo, monospace" font-size="39.600000" fill="#f9fafb">
        <tspan fill="#f97316">/srv/app</tspan>
        <tspan> $ </tspan>
        <tspan>kubectl apply -f deploy.yaml</tspan>
    </text>
</g>

<g transform="translate(440.000000,700.000000)">
    <rect x="0" y="0" width="360.000000" height="220.000000" rx="17.600000" ry="17.600000" fill="#0f172a"/>
    <rect x="0" y="0" width="360.000000" height="39.600000" rx="17.600000" ry="17.600000" fill="#38bdf8" opacity="0.35"/>
    
<g transform="translate(7.875000,7.333326)">
        <circle r="3.375000" cx="0" cy="4.488750" fill="#ff5f57"/>
        <circle r="3.375000" cx="10.125000" cy="4.488750" fill="#febc2e"/>
        <circle r="3.375000" cx="20.250000" cy="4.488750" fill="#28c840"/>
</g>

    <text x="180.000000" y="26.400000" text-anchor="middle" font-family="Menlo, monospace" font-size="26.400000" fill="#f8fafc" opacity="0.9">debug</text>
    <text x="28.800000" y="99.000000" font-family="Menlo, monospace" font-size="39.600000" fill="#f8fafc">
        <tspan fill="#38bdf8">~/workspace</tspan>
        <tspan> # </tspan>
        <tspan>go test ./...</tspan>
    </text>
</g>

<g transform="translate(840.000000,700.000000)">
    
    <ellipse cx="110.000000" cy="40.000000" rx="110.000000" ry="24.000000" fill="#10b981" opacity="0.8"/>
    <rect x="0" y="16.000000" width="220.000000" height="168.000000" fill="#064e3b"/>
    <ellipse cx="110.000000" cy="184.000000" rx="110.000000" ry="24.000000" fill="#10b981" opacity="0.9"/>
    <text x="110.000000" y="90.000000" text-anchor="middle" font-family="Arial" font-size="44.000000" fill="#ecfdf5">primary</text>
    <text x="110.000000" y="140.000000" text-anchor="middle" font-family="Arial" font-size="32.000000" fill="#ecfdf5" opacity="0.8">PostgreSQL 15</text>
</g>

<g transform="translate(1120.000000,700.000000)">
    
    <ellipse cx="110.000000" cy="40.000000" rx="110.000000" ry="24.000000" fill="#38bdf8" opacity="0.8"/>
    <rect x="0" y="16.000000" width="220.000000" height="168.000000" fill="#0f172a"/>
    <ellipse cx="110.000000" cy="184.000000" rx="110.000000" ry="24.000000" fill="#38bdf8" opacity="0.9"/>
    <text x="110.000000" y="90.000000" text-anchor="middle" font-family="Arial" font-size="44.000000" fill="#e0f2fe">replica</text>
    <text x="110.000000" y="140.000000" text-anchor="middle" font-family="Arial" font-size="32.000000" fill="#e0f2fe" opacity="0.8">PostgreSQL 15</text>
</g>

<g transform="translate(1400.000000,700.000000)">
    <rect x="0" y="0" width="220.000000" height="180.000000" rx="27.000000" ry="27.000000" fill="#4c1d95"/>
    
    
    
    <rect x="33.000000" y="14.400000" width="165.000000" height="32.400000" rx="9.720000" fill="#c084fc" opacity="0.9"/>
    <rect x="33.000000" y="61.200000" width="165.000000" height="32.400000" rx="9.720000" fill="#c084fc" opacity="0.7"/>
    <rect x="33.000000" y="108.000000" width="165.000000" height="32.400000" rx="9.720000" fill="#c084fc" opacity="0.5"/>
    <text x="110.000000" y="153.000000" text-anchor="middle" font-family="Arial" font-size="28.800000" fill="#ede9fe">events • Kafka</text>
</g>

<g transform="translate(1640.000000,700.000000)">
    <rect x="0" y="0" width="220.000000" height="180.000000" rx="27.000000" ry="27.000000" fill="#6b21a8"/>
    
    
    
    <rect x="33.000000" y="14.400000" width="165.000000" height="32.400000" rx="9.720000" fill="#f472b6" opacity="0.9"/>
    <rect x="33.000000" y="61.200000" width="165.000000" height="32.400000" rx="9.720000" fill="#f472b6" opacity="0.7"/>
    <rect x="33.000000" y="108.000000" width="165.000000" height="32.400000" rx="9.720000" fill="#f472b6" opacity="0.5"/>
    <text x="110.000000" y="153.000000" text-anchor="middle" font-family="Arial" font-size="28.800000" fill="#f5f3ff">tasks • RabbitMQ</text>
</g>

<g transform="translate(40.000000,960.000000)">
    <rect x="0" y="0" width="200.000000" height="160.000000" rx="40.000000" ry="40.000000" fill="#1d4ed8"/>
    <text x="100.000000" y="48.000000" text-anchor="middle" font-family="Arial" font-size="32.000000" fill="#eff6ff">global edge</text>
    <text x="100.000000" y="83.200000" text-anchor="middle" font-family="Arial" font-size="22.400000" fill="#eff6ff" opacity="0.85">Cloudflare</text>
    <text x="100.000000" y="112.000000" text-anchor="middle" font-family="Arial" font-size="19.200000" fill="#eff6ff" opacity="0.7">Global</text>
    
    <circle cx="50.000000" cy="136.000000" r="19.200000" fill="#60a5fa" opacity="0.9"/>
    <circle cx="100.000000" cy="144.000000" r="17.280000" fill="#60a5fa" opacity="0.6"/>
    <circle cx="150.000000" cy="136.000000" r="19.200000" fill="#60a5fa" opacity="0.75"/>
</g>

<g transform="translate(280.000000,960.000000)">
    <rect x="0" y="0" width="200.000000" height="160.000000" rx="40.000000" ry="40.000000" fill="#1e3a8a"/>
    <text x="100.000000" y="48.000000" text-anchor="middle" font-family="Arial" font-size="32.000000" fill="#dbeafe">asia edge</text>
    <text x="100.000000" y="83.200000" text-anchor="middle" font-family="Arial" font-size="22.400000" fill="#dbeafe" opacity="0.85">AWS CloudFront</text>
    <text x="100.000000" y="112.000000" text-anchor="middle" font-family="Arial" font-size="19.200000" fill="#dbeafe" opacity="0.7">ap-southeast-1</text>
    
    <circle cx="50.000000" cy="136.000000" r="19.200000" fill="#facc15" opacity="0.9"/>
    <circle cx="100.000000" cy="144.000000" r="17.280000" fill="#facc15" opacity="0.6"/>
    <circle cx="150.000000" cy="136.000000" r="19.200000" fill="#facc15" opacity="0.75"/>
</g>

<g transform="translate(520.000000,960.000000)">
    
    
    <path d="M0 45.000000 L110.000000 0 L220.000000 45.000000 L220.000000 135.000000 L110.000000 180.000000 L0 135.000000 Z" fill="#312e81" stroke="#6366f1" stroke-width="2"/>
    <text x="110.000000" y="81.000000" text-anchor="middle" font-family="Arial" font-size="36.000000" fill="#eef2ff">public api</text>
    <text x="110.000000" y="126.000000" text-anchor="middle" font-family="Arial" font-size="25.200000" fill="#eef2ff" opacity="0.85">ANY /v1</text>
</g>

<g transform="translate(780.000000,960.000000)">
    
    
    <path d="M0 45.000000 L110.000000 0 L220.000000 45.000000 L220.000000 135.000000 L110.000000 180.000000 L0 135.000000 Z" fill="#1e1b4b" stroke="#a855f7" stroke-width="2"/>
    <text x="110.000000" y="81.000000" text-anchor="middle" font-family="Arial" font-size="36.000000" fill="#e0e7ff">internal</text>
    <text x="110.000000" y="126.000000" text-anchor="middle" font-family="Arial" font-size="25.200000" fill="#e0e7ff" opacity="0.85">POST /internal</text>
</g>

<g transform="translate(1040.000000,960.000000)">
    <rect x="0" y="0" width="220.000000" height="180.000000" rx="36.000000" ry="36.000000" fill="#14532d"/>
    
    
    
    <circle cx="110.000000" cy="72.000000" r="32.400000" fill="#22c55e" opacity="0.9"/>
    <circle cx="110.000000" cy="72.000000" r="14.580000" fill="#14532d"/>
    <rect x="105.140000" y="36.360000" width="9.720000" height="16.200000" fill="#22c55e"/>
    <rect x="105.140000" y="91.440000" width="9.720000" height="16.200000" fill="#22c55e"/>
    <rect x="74.360000" y="67.140000" width="16.200000" height="9.720000" fill="#22c55e"/>
    <rect x="129.440000" y="67.140000" width="16.200000" height="9.720000" fill="#22c55e"/>
    <text x="110.000000" y="153.000000" text-anchor="middle" font-family="Arial" font-size="28.800000" fill="#dcfce7">reports</text>
    <text x="110.000000" y="171.000000" text-anchor="middle" font-family="Arial" font-size="21.600000" fill="#dcfce7" opacity="0.8">generate-monthly • 0 2 * * *</text>
</g>

<g transform="translate(1300.000000,960.000000)">
    <rect x="0" y="0" width="220.000000" height="180.000000" rx="36.000000" ry="36.000000" fill="#166534"/>
    
    
    
    <circle cx="110.000000" cy="72.000000" r="32.400000" fill="#4ade80" opacity="0.9"/>
    <circle cx="110.000000" cy="72.000000" r="14.580000" fill="#166534"/>
    <rect x="105.140000" y="36.360000" width="9.720000" height="16.200000" fill="#4ade80"/>
    <rect x="105.140000" y="91.440000" width="9.720000" height="16.200000" fill="#4ade80"/>
    <rect x="74.360000" y="67.140000" width="16.200000" height="9.720000" fill="#4ade80"/>
    <rect x="129.440000" y="67.140000" width="16.200000" height="9.720000" fill="#4ade80"/>
    <text x="110.000000" y="153.000000" text-anchor="middle" font-family="Arial" font-size="28.800000" fill="#bbf7d0">cleanup</text>
    <text x="110.000000" y="171.000000" text-anchor="middle" font-family="Arial" font-size="21.600000" fill="#bbf7d0" opacity="0.8">trim-cache • @every 5m</text>
</g>

<g transform="translate(40.000000,1180.000000)">
    <rect x="0" y="0" width="200.000000" height="180.000000" rx="21.600000" ry="21.600000" fill="#78350f"/>
    
    
    <path d="M0 63.000000 L100.000000 12.600000 L200.000000 63.000000 Z" fill="#f97316" opacity="0.8"/>
    <rect x="84.000000" y="81.000000" width="32.000000" height="72.000000" fill="#f97316" opacity="0.9"/>
    <text x="100.000000" y="126.000000" text-anchor="middle" font-family="Arial" font-size="32.400000" fill="#fef3c7">cli</text>
    <text x="100.000000" y="158.400000" text-anchor="middle" font-family="Arial" font-size="21.600000" fill="#fef3c7" opacity="0.8">Go • v2.1.0</text>
</g>

<g transform="translate(280.000000,1180.000000)">
    <rect x="0" y="0" width="200.000000" height="180.000000" rx="21.600000" ry="21.600000" fill="#92400e"/>
    
    
    <path d="M0 63.000000 L100.000000 12.600000 L200.000000 63.000000 Z" fill="#fb923c" opacity="0.8"/>
    <rect x="84.000000" y="81.000000" width="32.000000" height="72.000000" fill="#fb923c" opacity="0.9"/>
    <text x="100.000000" y="126.000000" text-anchor="middle" font-family="Arial" font-size="32.400000" fill="#ffedd5">lib</text>
    <text x="100.000000" y="158.400000" text-anchor="middle" font-family="Arial" font-size="21.600000" fill="#ffedd5" opacity="0.8">Python • v0.9.3</text>
</g>

<g transform="translate(520.000000,1180.000000)">
    <rect x="0" y="0" width="200.000000" height="180.000000" rx="32.400000" ry="32.400000" fill="#111827"/>
    
    <path d="M146.000000 0 L200.000000 54.000000 L200.000000 0 Z" fill="#9ca3af" opacity="0.8"/>
    <text x="20.000000" y="63.000000" font-family="Arial" font-size="36.000000" fill="#e5e7eb">build</text>
    <text x="20.000000" y="108.000000" font-family="Menlo, monospace" font-size="28.800000" fill="#e5e7eb" opacity="0.85">build_2024_05.tar.gz</text>
    <text x="20.000000" y="147.600000" font-family="Arial" font-size="25.200000" fill="#e5e7eb" opacity="0.7">32 MB</text>
</g>

<g transform="translate(760.000000,1180.000000)">
    <rect x="0" y="0" width="200.000000" height="180.000000" rx="32.400000" ry="32.400000" fill="#1f2937"/>
    
    <path d="M146.000000 0 L200.000000 54.000000 L200.000000 0 Z" fill="#f59e0b" opacity="0.8"/>
    <text x="20.000000" y="63.000000" font-family="Arial" font-size="36.000000" fill="#f9fafb">release</text>
    <text x="20.000000" y="108.000000" font-family="Menlo, monospace" font-size="28.800000" fill="#f9fafb" opacity="0.85">release-2024-05.zip</text>
    <text x="20.000000" y="147.600000" font-family="Arial" font-size="25.200000" fill="#f9fafb" opacity="0.7">28 MB</text>
</g>

<g transform="translate(1000.000000,1180.000000)">
    <rect x="0" y="0" width="220.000000" height="160.000000"
          rx="16.000000" ry="16.000000"
          fill="#fef3c7" stroke="#92400e" stroke-width="2"/>
    <text x="110.000000" y="80.000000"
          font-family="Arial" font-size="14" fill="#92400e"
          text-anchor="middle" dominant-baseline="middle">Design Notes</text>
</g>

<g transform="translate(1260.000000,1180.000000)">
    <rect x="0" y="0" width="220.000000" height="160.000000"
          rx="16.000000" ry="16.000000"
          fill="#e0f2fe" stroke="#1d4ed8" stroke-width="2"/>
    <text x="110.000000" y="80.000000"
          font-family="Arial" font-size="14" fill="#1d4ed8"
          text-anchor="middle" dominant-baseline="middle">Metrics</text>
</g>

<g transform="translate(0.000000,0.000000)">
    <rect x="0" y="0" width="200.000000" height="140.000000"
          rx="14.000000" ry="14.000000"
          fill="#e6f3ff" stroke="#333333" stroke-width="2"/>
    <text x="100.000000" y="70.000000"
          font-family="Arial" font-size="14" fill="#333333"
          text-anchor="middle" dominant-baseline="middle">x</text>
</g>

<g transform="translate(0.000000,0.000000)">
    <rect x="0" y="0" width="200.000000" height="140.000000"
          rx="14.000000" ry="14.000000"
          fill="#e6f3ff" stroke="#333333" stroke-width="2"/>
    <text x="100.000000" y="70.000000"
          font-family="Arial" font-size="14" fill="#333333"
          text-anchor="middle" dominant-baseline="middle">y</text>
</g>

<g transform="translate(0.000000,0.000000)">
    <rect x="0" y="0" width="200.000000" height="140.000000"
          rx="14.000000" ry="14.000000"
          fill="#e6f3ff" stroke="#333333" stroke-width="2"/>
    <text x="100.000000" y="70.000000"
          font-family="Arial" font-size="14" fill="#333333"
          text-anchor="middle" dominant-baseline="middle">w</text>
</g>

<g transform="translate(0.000000,0.000000)">
    <rect x="0" y="0" width="200.000000" height="140.000000"
          rx="14.000000" ry="14.000000"
          fill="#e6f3ff" stroke="#333333" stroke-width="2"/>
    <text x="100.000000" y="70.000000"
          font-family="Arial" font-size="14" fill="#333333"
          text-anchor="middle" dominant-baseline="middle">h</text>
</g>

<g transform="translate(0.000000,0.000000)">
    <rect x="0" y="0" width="200.000000" height="140.000000"
          rx="14.000000" ry="14.000000"
          fill="#e6f3ff" stroke="#333333" stroke-width="2"/>
    <text x="100.000000" y="70.000000"
          font-family="Arial" font-size="14" fill="#333333"
          text-anchor="middle" dominant-baseline="middle">url</text>
</g>

<g transform="translate(0.000000,0.000000)">
    <rect x="0" y="0" width="200.000000" height="140.000000"
          rx="14.000000" ry="14.000000"
          fill="#e6f3ff" stroke="#333333" stroke-width="2"/>
    <text x="100.000000" y="70.000000"
          font-family="Arial" font-size="14" fill="#333333"
          text-anchor="middle" dominant-baseline="middle">https://app.example.com</text>
</g>

<g transform="translate(0.000000,0.000000)">
    <rect x="0" y="0" width="200.000000" height="140.000000"
          rx="14.000000" ry="14.000000"
          fill="#e6f3ff" stroke="#333333" stroke-width="2"/>
    <text x="100.000000" y="70.000000"
          font-family="Arial" font-size="14" fill="#333333"
          text-anchor="middle" dominant-baseline="middle">&#34;</text>
</g>

<g transform="translate(0.000000,0.000000)">
    <rect x="0" y="0" width="200.000000" height="140.000000"
          rx="14.000000" ry="14.000000"
          fill="#e6f3ff" stroke="#333333" stroke-width="2"/>
    <text x="100.000000" y="70.000000"
          font-family="Arial" font-size="14" fill="#333333"
          text-anchor="middle" dominant-baseline="middle">bg</text>
</g>

<g transform="translate(0.000000,0.000000)">
    <rect x="0" y="0" width="200.000000" height="140.000000"
          rx="14.000000" ry="14.000000"
          fill="#e6f3ff" stroke="#333333" stroke-width="2"/>
    <text x="100.000000" y="70.000000"
          font-family="Arial" font-size="14" fill="#333333"
          text-anchor="middle" dominant-baseline="middle">#f1f5f9</text>
</g>

<g transform="translate(0.000000,0.000000)">
    <rect x="0" y="0" width="200.000000" height="140.000000"
          rx="14.000000" ry="14.000000"
          fill="#e6f3ff" stroke="#333333" stroke-width="2"/>
    <text x="100.000000" y="70.000000"
          font-family="Arial" font-size="14" fill="#333333"
          text-anchor="middle" dominant-baseline="middle">&#34;</text>
</g>

<g transform="translate(0.000000,0.000000)">
    <rect x="0" y="0" width="200.000000" height="140.000000"
          rx="14.000000" ry="14.000000"
          fill="#e6f3ff" stroke="#333333" stroke-width="2"/>
    <text x="100.000000" y="70.000000"
          font-family="Arial" font-size="14" fill="#333333"
          text-anchor="middle" dominant-baseline="middle">fg</text>
</g>

<g transform="translate(0.000000,0.000000)">
    <rect x="0" y="0" width="200.000000" height="140.000000"
          rx="14.000000" ry="14.000000"
          fill="#e6f3ff" stroke="#333333" stroke-width="2"/>
    <text x="100.000000" y="70.000000"
          font-family="Arial" font-size="14" fill="#333333"
          text-anchor="middle" dominant-baseline="middle">#111827</text>
</g>

<g transform="translate(0.000000,0.000000)">
    <rect x="0" y="0" width="200.000000" height="140.000000"
          rx="14.000000" ry="14.000000"
          fill="#e6f3ff" stroke="#333333" stroke-width="2"/>
    <text x="100.000000" y="70.000000"
          font-family="Arial" font-size="14" fill="#333333"
          text-anchor="middle" dominant-baseline="middle">&#34;</text>
</g>

<g transform="translate(0.000000,0.000000)">
    <rect x="0" y="0" width="200.000000" height="140.000000"
          rx="14.000000" ry="14.000000"
          fill="#e6f3ff" stroke="#333333" stroke-width="2"/>
    <text x="100.000000" y="70.000000"
          font-family="Arial" font-size="14" fill="#333333"
          text-anchor="middle" dominant-baseline="middle">contentBg</text>
</g>

<g transform="translate(0.000000,0.000000)">
    <rect x="0" y="0" width="200.000000" height="140.000000"
          rx="14.000000" ry="14.000000"
          fill="#e6f3ff" stroke="#333333" stroke-width="2"/>
    <text x="100.000000" y="70.000000"
          font-family="Arial" font-size="14" fill="#333333"
          text-anchor="middle" dominant-baseline="middle">#ffffff</text>
</g>

<g transform="translate(0.000000,0.000000)">
    <rect x="0" y="0" width="200.000000" height="140.000000"
          rx="14.000000" ry="14.000000"
          fill="#e6f3ff" stroke="#333333" stroke-width="2"/>
    <text x="100.000000" y="70.000000"
          font-family="Arial" font-size="14" fill="#333333"
          text-anchor="middle" dominant-baseline="middle">&#34;</text>
</g>

<g transform="translate(0.000000,0.000000)">
    <rect x="0" y="0" width="200.000000" height="140.000000"
          rx="14.000000" ry="14.000000"
          fill="#e6f3ff" stroke="#333333" stroke-width="2"/>
    <text x="100.000000" y="70.000000"
          font-family="Arial" font-size="14" fill="#333333"
          text-anchor="middle" dominant-baseline="middle">text</text>
</g>

<g transform="translate(0.000000,0.000000)">
    <rect x="0" y="0" width="200.000000" height="140.000000"
          rx="14.000000" ry="14.000000"
          fill="#e6f3ff" stroke="#333333" stroke-width="2"/>
    <text x="100.000000" y="70.000000"
          font-family="Arial" font-size="14" fill="#333333"
          text-anchor="middle" dominant-baseline="middle">Dashboard</text>
</g>

<g transform="translate(0.000000,0.000000)">
    <rect x="0" y="0" width="200.000000" height="140.000000"
          rx="14.000000" ry="14.000000"
          fill="#e6f3ff" stroke="#333333" stroke-width="2"/>
    <text x="100.000000" y="70.000000"
          font-family="Arial" font-size="14" fill="#333333"
          text-anchor="middle" dominant-baseline="middle">&#34;</text>
</g>

</svg>