<svg width="900" height="600" xmlns="http://www.w3.org/2000/svg"><rect width="100%" height="100%" fill="white"/><text x="450.00" y="25" text-anchor="middle" font-size="16" font-weight="bold" fill="#333">Running Distance Over Time</text><line x1="60.00" y1="60.00" x2="60.00" y2="540.00" stroke="#e5e7eb" stroke-width="1"/><line x1="216.00" y1="60.00" x2="216.00" y2="540.00" stroke="#e5e7eb" stroke-width="1"/><line x1="372.00" y1="60.00" x2="372.00" y2="540.00" stroke="#e5e7eb" stroke-width="1"/><line x1="528.00" y1="60.00" x2="528.00" y2="540.00" stroke="#e5e7eb" stroke-width="1"/><line x1="684.00" y1="60.00" x2="684.00" y2="540.00" stroke="#e5e7eb" stroke-width="1"/><line x1="840.00" y1="60.00" x2="840.00" y2="540.00" stroke="#e5e7eb" stroke-width="1"/><line x1="60.00" y1="60.00" x2="840.00" y2="60.00" stroke="#e5e7eb" stroke-width="1"/><line x1="60.00" y1="156.00" x2="840.00" y2="156.00" stroke="#e5e7eb" stroke-width="1"/><line x1="60.00" y1="252.00" x2="840.00" y2="252.00" stroke="#e5e7eb" stroke-width="1"/><line x1="60.00" y1="348.00" x2="840.00" y2="348.00" stroke="#e5e7eb" stroke-width="1"/><line x1="60.00" y1="444.00" x2="840.00" y2="444.00" stroke="#e5e7eb" stroke-width="1"/><line x1="60.00" y1="540.00" x2="840.00" y2="540.00" stroke="#e5e7eb" stroke-width="1"/><line x1="60.00" y1="540.00" x2="840.00" y2="540.00" stroke="#333" stroke-width="2"/><text x="60.00" y="560.00" text-anchor="middle" font-size="11" fill="#666">12/31</text><text x="216.00" y="560.00" text-anchor="middle" font-size="11" fill="#666">01/02</text><text x="372.00" y="560.00" text-anchor="middle" font-size="11" fill="#666">01/03</text><text x="528.00" y="560.00" text-anchor="middle" font-size="11" fill="#666">01/04</text><text x="684.00" y="560.00" text-anchor="middle" font-size="11" fill="#666">01/05</text><text x="840.00" y="560.00" text-anchor="middle" font-size="11" fill="#666">01/07</text><text x="450.00" y="580.00" text-anchor="middle" font-size="12" fill="#333">Date</text><line x1="60.00" y1="60.00" x2="60.00" y2="540.00" stroke="#333" stroke-width="2"/><text x="50.00" y="544.00" text-anchor="end" font-size="11" fill="#666">-0.6</text><text x="50.00" y="448.00" text-anchor="end" font-size="11" fill="#666">0.9</text><text x="50.00" y="352.00" text-anchor="end" font-size="11" fill="#666">2.4</text><text x="50.00" y="256.00" text-anchor="end" font-size="11" fill="#666">3.8</text><text x="50.00" y="160.00" text-anchor="end" font-size="11" fill="#666">5.3</text><text x="50.00" y="64.00" text-anchor="end" font-size="11" fill="#666">6.8</text><text x="20.00" y="300.00" text-anchor="middle" font-size="12" fill="#333" transform="rotate(-90 20.00 300.00)">Distance (km)</text><path d="M 82.08 305.81 L 204.72 274.19 L 327.36 229.03 L 450.00 319.35 L 572.64 170.97 L 695.28 203.23 L 817.92 100.00" stroke="#3b82f6" stroke-width="2" fill="none"/><circle cx="82.08" cy="305.81" r="3" fill="#3b82f6"/><circle cx="204.72" cy="274.19" r="3" fill="#3b82f6"/><circle cx="327.36" cy="229.03" r="3" fill="#3b82f6"/><circle cx="450.00" cy="319.35" r="3" fill="#3b82f6"/><circle cx="572.64" cy="170.97" r="3" fill="#3b82f6"/><circle cx="695.28" cy="203.23" r="3" fill="#3b82f6"/><circle cx="817.92" cy="100.00" r="3" fill="#3b82f6"/></svg>