<svg width="900" height="600" xmlns="http://www.w3.org/2000/svg"><rect width="100%" height="100%" fill="white"/><text x="450.00" y="25" text-anchor="middle" font-size="16" font-weight="bold" fill="#333">Temperature Monitoring (24 hours)</text><line x1="60.00" y1="60.00" x2="60.00" y2="494.00" stroke="#e5e7eb" stroke-width="1"/><line x1="216.00" y1="60.00" x2="216.00" y2="494.00" stroke="#e5e7eb" stroke-width="1"/><line x1="372.00" y1="60.00" x2="372.00" y2="494.00" stroke="#e5e7eb" stroke-width="1"/><line x1="528.00" y1="60.00" x2="528.00" y2="494.00" stroke="#e5e7eb" stroke-width="1"/><line x1="684.00" y1="60.00" x2="684.00" y2="494.00" stroke="#e5e7eb" stroke-width="1"/><line x1="840.00" y1="60.00" x2="840.00" y2="494.00" stroke="#e5e7eb" stroke-width="1"/><line x1="60.00" y1="60.00" x2="840.00" y2="60.00" stroke="#e5e7eb" stroke-width="1"/><line x1="60.00" y1="146.80" x2="840.00" y2="146.80" stroke="#e5e7eb" stroke-width="1"/><line x1="60.00" y1="233.60" x2="840.00" y2="233.60" stroke="#e5e7eb" stroke-width="1"/><line x1="60.00" y1="320.40" x2="840.00" y2="320.40" stroke="#e5e7eb" stroke-width="1"/><line x1="60.00" y1="407.20" x2="840.00" y2="407.20" stroke="#e5e7eb" stroke-width="1"/><line x1="60.00" y1="494.00" x2="840.00" y2="494.00" stroke="#e5e7eb" stroke-width="1"/><line x1="60.00" y1="494.00" x2="840.00" y2="494.00" stroke="#333" stroke-width="2"/><text x="60.00" y="514.00" text-anchor="middle" font-size="11" fill="#666">-0.7</text><text x="216.00" y="514.00" text-anchor="middle" font-size="11" fill="#666">4.4</text><text x="372.00" y="514.00" text-anchor="middle" font-size="11" fill="#666">9.5</text><text x="528.00" y="514.00" text-anchor="middle" font-size="11" fill="#666">14.5</text><text x="684.00" y="514.00" text-anchor="middle" font-size="11" fill="#666">19.6</text><text x="840.00" y="514.00" text-anchor="middle" font-size="11" fill="#666">24.7</text><text x="450.00" y="534.00" text-anchor="middle" font-size="12" fill="#333">Hour</text><line x1="60.00" y1="60.00" x2="60.00" y2="494.00" stroke="#333" stroke-width="2"/><text x="50.00" y="498.00" text-anchor="end" font-size="11" fill="#666">-3.7</text><text x="50.00" y="411.20" text-anchor="end" font-size="11" fill="#666">5.1</text><text x="50.00" y="324.40" text-anchor="end" font-size="11" fill="#666">13.9</text><text x="50.00" y="237.60" text-anchor="end" font-size="11" fill="#666">22.6</text><text x="50.00" y="150.80" text-anchor="end" font-size="11" fill="#666">31.4</text><text x="50.00" y="64.00" text-anchor="end" font-size="11" fill="#666">40.1</text><text x="20.00" y="277.00" text-anchor="middle" font-size="12" fill="#333" transform="rotate(-90 20.00 277.00)">Temperature (°C)</text><path d="M 82.08 234.89 L 143.40 228.94 L 204.72 218.04 L 266.04 192.28 L 327.36 175.44 L 388.68 148.68 L 450.00 125.89 L 511.32 113.01 L 572.64 128.87 L 633.96 155.62 L 695.28 187.33 L 756.60 212.10 L 817.92 228.94" stroke="#ef4444" stroke-width="2" fill="none"/><circle cx="82.08" cy="234.89" r="3" fill="#ef4444"/><circle cx="143.40" cy="228.94" r="3" fill="#ef4444"/><circle cx="204.72" cy="218.04" r="3" fill="#ef4444"/><circle cx="266.04" cy="192.28" r="3" fill="#ef4444"/><circle cx="327.36" cy="175.44" r="3" fill="#ef4444"/><circle cx="388.68" cy="148.68" r="3" fill="#ef4444"/><circle cx="450.00" cy="125.89" r="3" fill="#ef4444"/><circle cx="511.32" cy="113.01" r="3" fill="#ef4444"/><circle cx="572.64" cy="128.87" r="3" fill="#ef4444"/><circle cx="633.96" cy="155.62" r="3" fill="#ef4444"/><circle cx="695.28" cy="187.33" r="3" fill="#ef4444"/><circle cx="756.60" cy="212.10" r="3" fill="#ef4444"/><circle cx="817.92" cy="228.94" r="3" fill="#ef4444"/><path d="M 82.08 241.82 L 143.40 234.89 L 204.72 222.01 L 266.04 205.16 L 327.36 188.32 L 388.68 162.55 L 450.00 145.71 L 511.32 138.77 L 572.64 145.71 L 633.96 168.50 L 695.28 192.28 L 756.60 218.04 L 817.92 234.89" stroke="#10b981" stroke-width="2" fill="none"/><circle cx="82.08" cy="241.82" r="3" fill="#10b981"/><circle cx="143.40" cy="234.89" r="3" fill="#10b981"/><circle cx="204.72" cy="222.01" r="3" fill="#10b981"/><circle cx="266.04" cy="205.16" r="3" fill="#10b981"/><circle cx="327.36" cy="188.32" r="3" fill="#10b981"/><circle cx="388.68" cy="162.55" r="3" fill="#10b981"/><circle cx="450.00" cy="145.71" r="3" fill="#10b981"/><circle cx="511.32" cy="138.77" r="3" fill="#10b981"/><circle cx="572.64" cy="145.71" r="3" fill="#10b981"/><circle cx="633.96" cy="168.50" r="3" fill="#10b981"/><circle cx="695.28" cy="192.28" r="3" fill="#10b981"/><circle cx="756.60" cy="218.04" r="3" fill="#10b981"/><circle cx="817.92" cy="234.89" r="3" fill="#10b981"/><path d="M 82.08 227.95 L 143.40 222.01 L 204.72 215.07 L 266.04 188.32 L 327.36 165.53 L 388.68 132.83 L 450.00 109.05 L 511.32 96.17 L 572.64 113.01 L 633.96 148.68 L 695.28 175.44 L 756.60 202.19 L 817.92 218.04" stroke="#f59e0b" stroke-width="2" fill="none" stroke-dasharray="2,2"/><circle cx="82.08" cy="227.95" r="3" fill="#f59e0b"/><circle cx="143.40" cy="222.01" r="3" fill="#f59e0b"/><circle cx="204.72" cy="215.07" r="3" fill="#f59e0b"/><circle cx="266.04" cy="188.32" r="3" fill="#f59e0b"/><circle cx="327.36" cy="165.53" r="3" fill="#f59e0b"/><circle cx="388.68" cy="132.83" r="3" fill="#f59e0b"/><circle cx="450.00" cy="109.05" r="3" fill="#f59e0b"/><circle cx="511.32" cy="96.17" r="3" fill="#f59e0b"/><circle cx="572.64" cy="113.01" r="3" fill="#f59e0b"/><circle cx="633.96" cy="148.68" r="3" fill="#f59e0b"/><circle cx="695.28" cy="175.44" r="3" fill="#f59e0b"/><circle cx="756.60" cy="202.19" r="3" fill="#f59e0b"/><circle cx="817.92" cy="218.04" r="3" fill="#f59e0b"/><rect x="327.20" y="504.00" width="245.60" height="36.00" fill="white" stroke="#ccc" stroke-width="1" rx="3"/><rect x="335.20" y="522.00" width="15.00" height="3" fill="#ef4444"/><text x="356.20" y="526.00" font-size="11" fill="#333">server1</text><rect x="416.40" y="522.00" width="15.00" height="3" fill="#10b981"/><text x="437.40" y="526.00" font-size="11" fill="#333">server2</text><rect x="497.60" y="522.00" width="15.00" height="3" fill="#f59e0b"/><text x="518.60" y="526.00" font-size="11" fill="#333">server3</text></svg>