<svg width="900" height="600" xmlns="http://www.w3.org/2000/svg"><rect width="100%" height="100%" fill="white"/><text x="450.00" y="25" text-anchor="middle" font-size="16" font-weight="bold" fill="#333">Monthly Sales Performance</text><line x1="60.00" y1="106.00" x2="60.00" y2="540.00" stroke="#e5e7eb" stroke-width="1"/><line x1="216.00" y1="106.00" x2="216.00" y2="540.00" stroke="#e5e7eb" stroke-width="1"/><line x1="372.00" y1="106.00" x2="372.00" y2="540.00" stroke="#e5e7eb" stroke-width="1"/><line x1="528.00" y1="106.00" x2="528.00" y2="540.00" stroke="#e5e7eb" stroke-width="1"/><line x1="684.00" y1="106.00" x2="684.00" y2="540.00" stroke="#e5e7eb" stroke-width="1"/><line x1="840.00" y1="106.00" x2="840.00" y2="540.00" stroke="#e5e7eb" stroke-width="1"/><line x1="60.00" y1="106.00" x2="840.00" y2="106.00" stroke="#e5e7eb" stroke-width="1"/><line x1="60.00" y1="192.80" x2="840.00" y2="192.80" stroke="#e5e7eb" stroke-width="1"/><line x1="60.00" y1="279.60" x2="840.00" y2="279.60" stroke="#e5e7eb" stroke-width="1"/><line x1="60.00" y1="366.40" x2="840.00" y2="366.40" stroke="#e5e7eb" stroke-width="1"/><line x1="60.00" y1="453.20" x2="840.00" y2="453.20" stroke="#e5e7eb" stroke-width="1"/><line x1="60.00" y1="540.00" x2="840.00" y2="540.00" stroke="#e5e7eb" stroke-width="1"/><line x1="60.00" y1="540.00" x2="840.00" y2="540.00" stroke="#333" stroke-width="2"/><text x="60.00" y="560.00" text-anchor="middle" font-size="11" fill="#666">0.7</text><text x="216.00" y="560.00" text-anchor="middle" font-size="11" fill="#666">3.0</text><text x="372.00" y="560.00" text-anchor="middle" font-size="11" fill="#666">5.3</text><text x="528.00" y="560.00" text-anchor="middle" font-size="11" fill="#666">7.7</text><text x="684.00" y="560.00" text-anchor="middle" font-size="11" fill="#666">10.0</text><text x="840.00" y="560.00" text-anchor="middle" font-size="11" fill="#666">12.3</text><text x="450.00" y="580.00" text-anchor="middle" font-size="12" fill="#333">Month</text><line x1="60.00" y1="106.00" x2="60.00" y2="540.00" stroke="#333" stroke-width="2"/><text x="50.00" y="544.00" text-anchor="end" font-size="11" fill="#666">10.1</text><text x="50.00" y="457.20" text-anchor="end" font-size="11" fill="#666">30.3</text><text x="50.00" y="370.40" text-anchor="end" font-size="11" fill="#666">50.4</text><text x="50.00" y="283.60" text-anchor="end" font-size="11" fill="#666">70.6</text><text x="50.00" y="196.80" text-anchor="end" font-size="11" fill="#666">90.7</text><text x="50.00" y="110.00" text-anchor="end" font-size="11" fill="#666">110.9</text><text x="20.00" y="323.00" text-anchor="middle" font-size="12" fill="#333" transform="rotate(-90 20.00 323.00)">Revenue ($K)</text><path d="M 82.08 388.88 L 148.97 356.15 L 215.87 374.67 L 282.76 319.99 L 349.66 329.89 L 416.55 271.33 L 483.45 289.42 L 550.34 233.88 L 617.24 241.19 L 684.13 203.31 L 751.03 173.60 L 817.92 142.17" stroke="#3b82f6" stroke-width="2" fill="none"/><circle cx="82.08" cy="388.88" r="3" fill="#3b82f6"/><circle cx="148.97" cy="356.15" r="3" fill="#3b82f6"/><circle cx="215.87" cy="374.67" r="3" fill="#3b82f6"/><circle cx="282.76" cy="319.99" r="3" fill="#3b82f6"/><circle cx="349.66" cy="329.89" r="3" fill="#3b82f6"/><circle cx="416.55" cy="271.33" r="3" fill="#3b82f6"/><circle cx="483.45" cy="289.42" r="3" fill="#3b82f6"/><circle cx="550.34" cy="233.88" r="3" fill="#3b82f6"/><circle cx="617.24" cy="241.19" r="3" fill="#3b82f6"/><circle cx="684.13" cy="203.31" r="3" fill="#3b82f6"/><circle cx="751.03" cy="173.60" r="3" fill="#3b82f6"/><circle cx="817.92" cy="142.17" r="3" fill="#3b82f6"/><path d="M 82.08 443.56 L 148.97 419.01 L 215.87 403.51 L 282.76 387.58 L 349.66 358.31 L 416.55 330.32 L 483.45 314.39 L 550.34 289.85 L 617.24 267.03 L 684.13 244.21 L 751.03 228.28 L 817.92 199.43" stroke="#8b5cf6" stroke-width="2" fill="none" stroke-dasharray="5,5"/><circle cx="82.08" cy="443.56" r="3" fill="#8b5cf6"/><circle cx="148.97" cy="419.01" r="3" fill="#8b5cf6"/><circle cx="215.87" cy="403.51" r="3" fill="#8b5cf6"/><circle cx="282.76" cy="387.58" r="3" fill="#8b5cf6"/><circle cx="349.66" cy="358.31" r="3" fill="#8b5cf6"/><circle cx="416.55" cy="330.32" r="3" fill="#8b5cf6"/><circle cx="483.45" cy="314.39" r="3" fill="#8b5cf6"/><circle cx="550.34" cy="289.85" r="3" fill="#8b5cf6"/><circle cx="617.24" cy="267.03" r="3" fill="#8b5cf6"/><circle cx="684.13" cy="244.21" r="3" fill="#8b5cf6"/><circle cx="751.03" cy="228.28" r="3" fill="#8b5cf6"/><circle cx="817.92" cy="199.43" r="3" fill="#8b5cf6"/><path d="M 82.08 503.83 L 148.97 485.32 L 215.87 460.78 L 282.76 444.85 L 349.66 417.72 L 416.55 388.88 L 483.45 356.15 L 550.34 331.61 L 617.24 302.76 L 684.13 271.33 L 751.03 244.21 L 817.92 215.36" stroke="#ec4899" stroke-width="2" fill="none"/><circle cx="82.08" cy="503.83" r="3" fill="#ec4899"/><circle cx="148.97" cy="485.32" r="3" fill="#ec4899"/><circle cx="215.87" cy="460.78" r="3" fill="#ec4899"/><circle cx="282.76" cy="444.85" r="3" fill="#ec4899"/><circle cx="349.66" cy="417.72" r="3" fill="#ec4899"/><circle cx="416.55" cy="388.88" r="3" fill="#ec4899"/><circle cx="483.45" cy="356.15" r="3" fill="#ec4899"/><circle cx="550.34" cy="331.61" r="3" fill="#ec4899"/><circle cx="617.24" cy="302.76" r="3" fill="#ec4899"/><circle cx="684.13" cy="271.33" r="3" fill="#ec4899"/><circle cx="751.03" cy="244.21" r="3" fill="#ec4899"/><circle cx="817.92" cy="215.36" r="3" fill="#ec4899"/><rect x="307.40" y="60.00" width="285.20" height="36.00" fill="white" stroke="#ccc" stroke-width="1" rx="3"/><rect x="315.40" y="78.00" width="15.00" height="3" fill="#3b82f6"/><text x="336.40" y="82.00" font-size="11" fill="#333">product_a</text><rect x="409.80" y="78.00" width="15.00" height="3" fill="#8b5cf6"/><text x="430.80" y="82.00" font-size="11" fill="#333">product_b</text><rect x="504.20" y="78.00" width="15.00" height="3" fill="#ec4899"/><text x="525.20" y="82.00" font-size="11" fill="#333">product_c</text></svg>