<svg width="900" height="600" xmlns="http://www.w3.org/2000/svg"><rect width="100%" height="100%" fill="white"/><text x="450.00" y="25" text-anchor="middle" font-size="16" font-weight="bold" fill="#333">Temperature Monitoring (24 hours)</text><line x1="60.00" y1="60.00" x2="60.00" y2="494.00" stroke="#e5e7eb" stroke-width="1"/><line x1="216.00" y1="60.00" x2="216.00" y2="494.00" stroke="#e5e7eb" stroke-width="1"/><line x1="372.00" y1="60.00" x2="372.00" y2="494.00" stroke="#e5e7eb" stroke-width="1"/><line x1="528.00" y1="60.00" x2="528.00" y2="494.00" stroke="#e5e7eb" stroke-width="1"/><line x1="684.00" y1="60.00" x2="684.00" y2="494.00" stroke="#e5e7eb" stroke-width="1"/><line x1="840.00" y1="60.00" x2="840.00" y2="494.00" stroke="#e5e7eb" stroke-width="1"/><line x1="60.00" y1="60.00" x2="840.00" y2="60.00" stroke="#e5e7eb" stroke-width="1"/><line x1="60.00" y1="146.80" x2="840.00" y2="146.80" stroke="#e5e7eb" stroke-width="1"/><line x1="60.00" y1="233.60" x2="840.00" y2="233.60" stroke="#e5e7eb" stroke-width="1"/><line x1="60.00" y1="320.40" x2="840.00" y2="320.40" stroke="#e5e7eb" stroke-width="1"/><line x1="60.00" y1="407.20" x2="840.00" y2="407.20" stroke="#e5e7eb" stroke-width="1"/><line x1="60.00" y1="494.00" x2="840.00" y2="494.00" stroke="#e5e7eb" stroke-width="1"/><line x1="60.00" y1="494.00" x2="840.00" y2="494.00" stroke="#333" stroke-width="2"/><text x="60.00" y="514.00" text-anchor="middle" font-size="11" fill="#666">-0.7</text><text x="216.00" y="514.00" text-anchor="middle" font-size="11" fill="#666">4.4</text><text x="372.00" y="514.00" text-anchor="middle" font-size="11" fill="#666">9.5</text><text x="528.00" y="514.00" text-anchor="middle" font-size="11" fill="#666">14.5</text><text x="684.00" y="514.00" text-anchor="middle" font-size="11" fill="#666">19.6</text><text x="840.00" y="514.00" text-anchor="middle" font-size="11" fill="#666">24.7</text><text x="450.00" y="534.00" text-anchor="middle" font-size="12" fill="#333">Hour</text><line x1="60.00" y1="60.00" x2="60.00" y2="494.00" stroke="#333" stroke-width="2"/><text x="50.00" y="498.00" text-anchor="end" font-size="11" fill="#666">20.3</text><text x="50.00" y="411.20" text-anchor="end" font-size="11" fill="#666">23.9</text><text x="50.00" y="324.40" text-anchor="end" font-size="11" fill="#666">27.4</text><text x="50.00" y="237.60" text-anchor="end" font-size="11" fill="#666">30.9</text><text x="50.00" y="150.80" text-anchor="end" font-size="11" fill="#666">34.4</text><text x="50.00" y="64.00" text-anchor="end" font-size="11" fill="#666">38.0</text><text x="20.00" y="277.00" text-anchor="middle" font-size="12" fill="#333" transform="rotate(-90 20.00 277.00)">Temperature (°C)</text><path d="M 82.08 440.61 L 143.40 425.85 L 204.72 398.79 L 266.04 334.82 L 327.36 292.99 L 388.68 226.56 L 450.00 169.98 L 511.32 137.99 L 572.64 177.36 L 633.96 243.79 L 695.28 322.52 L 756.60 384.02 L 817.92 425.85" stroke="#ef4444" stroke-width="2" fill="none"/><circle cx="82.08" cy="440.61" r="3" fill="#ef4444"/><circle cx="143.40" cy="425.85" r="3" fill="#ef4444"/><circle cx="204.72" cy="398.79" r="3" fill="#ef4444"/><circle cx="266.04" cy="334.82" r="3" fill="#ef4444"/><circle cx="327.36" cy="292.99" r="3" fill="#ef4444"/><circle cx="388.68" cy="226.56" r="3" fill="#ef4444"/><circle cx="450.00" cy="169.98" r="3" fill="#ef4444"/><circle cx="511.32" cy="137.99" r="3" fill="#ef4444"/><circle cx="572.64" cy="177.36" r="3" fill="#ef4444"/><circle cx="633.96" cy="243.79" r="3" fill="#ef4444"/><circle cx="695.28" cy="322.52" r="3" fill="#ef4444"/><circle cx="756.60" cy="384.02" r="3" fill="#ef4444"/><circle cx="817.92" cy="425.85" r="3" fill="#ef4444"/><path d="M 82.08 457.83 L 143.40 440.61 L 204.72 408.63 L 266.04 366.80 L 327.36 324.98 L 388.68 261.01 L 450.00 219.18 L 511.32 201.96 L 572.64 219.18 L 633.96 275.77 L 695.28 334.82 L 756.60 398.79 L 817.92 440.61" stroke="#10b981" stroke-width="2" fill="none"/><circle cx="82.08" cy="457.83" r="3" fill="#10b981"/><circle cx="143.40" cy="440.61" r="3" fill="#10b981"/><circle cx="204.72" cy="408.63" r="3" fill="#10b981"/><circle cx="266.04" cy="366.80" r="3" fill="#10b981"/><circle cx="327.36" cy="324.98" r="3" fill="#10b981"/><circle cx="388.68" cy="261.01" r="3" fill="#10b981"/><circle cx="450.00" cy="219.18" r="3" fill="#10b981"/><circle cx="511.32" cy="201.96" r="3" fill="#10b981"/><circle cx="572.64" cy="219.18" r="3" fill="#10b981"/><circle cx="633.96" cy="275.77" r="3" fill="#10b981"/><circle cx="695.28" cy="334.82" r="3" fill="#10b981"/><circle cx="756.60" cy="398.79" r="3" fill="#10b981"/><circle cx="817.92" cy="440.61" r="3" fill="#10b981"/><path d="M 82.08 423.39 L 143.40 408.63 L 204.72 391.40 L 266.04 324.98 L 327.36 268.39 L 388.68 187.20 L 450.00 128.15 L 511.32 96.17 L 572.64 137.99 L 633.96 226.56 L 695.28 292.99 L 756.60 359.42 L 817.92 398.79" stroke="#f59e0b" stroke-width="2" fill="none" stroke-dasharray="2,2"/><circle cx="82.08" cy="423.39" r="3" fill="#f59e0b"/><circle cx="143.40" cy="408.63" r="3" fill="#f59e0b"/><circle cx="204.72" cy="391.40" r="3" fill="#f59e0b"/><circle cx="266.04" cy="324.98" r="3" fill="#f59e0b"/><circle cx="327.36" cy="268.39" r="3" fill="#f59e0b"/><circle cx="388.68" cy="187.20" r="3" fill="#f59e0b"/><circle cx="450.00" cy="128.15" r="3" fill="#f59e0b"/><circle cx="511.32" cy="96.17" r="3" fill="#f59e0b"/><circle cx="572.64" cy="137.99" r="3" fill="#f59e0b"/><circle cx="633.96" cy="226.56" r="3" fill="#f59e0b"/><circle cx="695.28" cy="292.99" r="3" fill="#f59e0b"/><circle cx="756.60" cy="359.42" r="3" fill="#f59e0b"/><circle cx="817.92" cy="398.79" r="3" fill="#f59e0b"/><rect x="327.20" y="504.00" width="245.60" height="36.00" fill="white" stroke="#ccc" stroke-width="1" rx="3"/><rect x="335.20" y="522.00" width="15.00" height="3" fill="#ef4444"/><text x="356.20" y="526.00" font-size="11" fill="#333">server1</text><rect x="416.40" y="522.00" width="15.00" height="3" fill="#10b981"/><text x="437.40" y="526.00" font-size="11" fill="#333">server2</text><rect x="497.60" y="522.00" width="15.00" height="3" fill="#f59e0b"/><text x="518.60" y="526.00" font-size="11" fill="#333">server3</text></svg>