<svg width="900" height="600" xmlns="http://www.w3.org/2000/svg"><rect width="100%" height="100%" fill="white"/><text x="450.00" y="25" text-anchor="middle" font-size="16" font-weight="bold" fill="#333">Training Metrics</text><line x1="60.00" y1="106.00" x2="60.00" y2="540.00" stroke="#e5e7eb" stroke-width="1"/><line x1="216.00" y1="106.00" x2="216.00" y2="540.00" stroke="#e5e7eb" stroke-width="1"/><line x1="372.00" y1="106.00" x2="372.00" y2="540.00" stroke="#e5e7eb" stroke-width="1"/><line x1="528.00" y1="106.00" x2="528.00" y2="540.00" stroke="#e5e7eb" stroke-width="1"/><line x1="684.00" y1="106.00" x2="684.00" y2="540.00" stroke="#e5e7eb" stroke-width="1"/><line x1="840.00" y1="106.00" x2="840.00" y2="540.00" stroke="#e5e7eb" stroke-width="1"/><line x1="60.00" y1="106.00" x2="840.00" y2="106.00" stroke="#e5e7eb" stroke-width="1"/><line x1="60.00" y1="192.80" x2="840.00" y2="192.80" stroke="#e5e7eb" stroke-width="1"/><line x1="60.00" y1="279.60" x2="840.00" y2="279.60" stroke="#e5e7eb" stroke-width="1"/><line x1="60.00" y1="366.40" x2="840.00" y2="366.40" stroke="#e5e7eb" stroke-width="1"/><line x1="60.00" y1="453.20" x2="840.00" y2="453.20" stroke="#e5e7eb" stroke-width="1"/><line x1="60.00" y1="540.00" x2="840.00" y2="540.00" stroke="#e5e7eb" stroke-width="1"/><line x1="60.00" y1="540.00" x2="840.00" y2="540.00" stroke="#333" stroke-width="2"/><text x="60.00" y="560.00" text-anchor="middle" font-size="11" fill="#666">12/31</text><text x="216.00" y="560.00" text-anchor="middle" font-size="11" fill="#666">01/02</text><text x="372.00" y="560.00" text-anchor="middle" font-size="11" fill="#666">01/03</text><text x="528.00" y="560.00" text-anchor="middle" font-size="11" fill="#666">01/04</text><text x="684.00" y="560.00" text-anchor="middle" font-size="11" fill="#666">01/05</text><text x="840.00" y="560.00" text-anchor="middle" font-size="11" fill="#666">01/07</text><text x="450.00" y="580.00" text-anchor="middle" font-size="12" fill="#333">Date</text><line x1="60.00" y1="106.00" x2="60.00" y2="540.00" stroke="#333" stroke-width="2"/><text x="50.00" y="544.00" text-anchor="end" font-size="11" fill="#666">2.4</text><text x="50.00" y="457.20" text-anchor="end" font-size="11" fill="#666">3.4</text><text x="50.00" y="370.40" text-anchor="end" font-size="11" fill="#666">4.3</text><text x="50.00" y="283.60" text-anchor="end" font-size="11" fill="#666">5.3</text><text x="50.00" y="196.80" text-anchor="end" font-size="11" fill="#666">6.2</text><text x="50.00" y="110.00" text-anchor="end" font-size="11" fill="#666">7.2</text><text x="20.00" y="323.00" text-anchor="middle" font-size="12" fill="#333" transform="rotate(-90 20.00 323.00)">Distance (km) / Pace (min/km)</text><path d="M 82.08 484.85 L 204.72 440.54 L 327.36 377.25 L 450.00 503.83 L 572.64 295.88 L 695.28 341.08 L 817.92 196.42" stroke="#3b82f6" stroke-width="2" fill="none"/><circle cx="82.08" cy="484.85" r="3" fill="#3b82f6"/><circle cx="204.72" cy="440.54" r="3" fill="#3b82f6"/><circle cx="327.36" cy="377.25" r="3" fill="#3b82f6"/><circle cx="450.00" cy="503.83" r="3" fill="#3b82f6"/><circle cx="572.64" cy="295.88" r="3" fill="#3b82f6"/><circle cx="695.28" cy="341.08" r="3" fill="#3b82f6"/><circle cx="817.92" cy="196.42" r="3" fill="#3b82f6"/><path d="M 82.08 169.29 L 204.72 187.38 L 327.36 205.46 L 450.00 142.17 L 572.64 223.54 L 695.28 214.50 L 817.92 241.62" stroke="#ef4444" stroke-width="2" fill="none" stroke-dasharray="5,5"/><circle cx="82.08" cy="169.29" r="3" fill="#ef4444"/><circle cx="204.72" cy="187.38" r="3" fill="#ef4444"/><circle cx="327.36" cy="205.46" r="3" fill="#ef4444"/><circle cx="450.00" cy="142.17" r="3" fill="#ef4444"/><circle cx="572.64" cy="223.54" r="3" fill="#ef4444"/><circle cx="695.28" cy="214.50" r="3" fill="#ef4444"/><circle cx="817.92" cy="241.62" r="3" fill="#ef4444"/><rect x="374.40" y="60.00" width="151.20" height="36.00" fill="white" stroke="#ccc" stroke-width="1" rx="3"/><rect x="382.40" y="78.00" width="15.00" height="3" fill="#3b82f6"/><text x="403.40" y="82.00" font-size="11" fill="#333">distance</text><rect x="470.20" y="78.00" width="15.00" height="3" fill="#ef4444"/><text x="491.20" y="82.00" font-size="11" fill="#333">pace</text></svg>