<svg width="900" height="600" xmlns="http://www.w3.org/2000/svg"><rect width="100%" height="100%" fill="white"/><text x="450.00" y="25" text-anchor="middle" font-size="16" font-weight="bold" fill="#333">Network Latency (ms)</text><line x1="60.00" y1="60.00" x2="60.00" y2="540.00" stroke="#e5e7eb" stroke-width="1"/><line x1="216.00" y1="60.00" x2="216.00" y2="540.00" stroke="#e5e7eb" stroke-width="1"/><line x1="372.00" y1="60.00" x2="372.00" y2="540.00" stroke="#e5e7eb" stroke-width="1"/><line x1="528.00" y1="60.00" x2="528.00" y2="540.00" stroke="#e5e7eb" stroke-width="1"/><line x1="684.00" y1="60.00" x2="684.00" y2="540.00" stroke="#e5e7eb" stroke-width="1"/><line x1="840.00" y1="60.00" x2="840.00" y2="540.00" stroke="#e5e7eb" stroke-width="1"/><line x1="60.00" y1="60.00" x2="840.00" y2="60.00" stroke="#e5e7eb" stroke-width="1"/><line x1="60.00" y1="156.00" x2="840.00" y2="156.00" stroke="#e5e7eb" stroke-width="1"/><line x1="60.00" y1="252.00" x2="840.00" y2="252.00" stroke="#e5e7eb" stroke-width="1"/><line x1="60.00" y1="348.00" x2="840.00" y2="348.00" stroke="#e5e7eb" stroke-width="1"/><line x1="60.00" y1="444.00" x2="840.00" y2="444.00" stroke="#e5e7eb" stroke-width="1"/><line x1="60.00" y1="540.00" x2="840.00" y2="540.00" stroke="#e5e7eb" stroke-width="1"/><line x1="60.00" y1="540.00" x2="840.00" y2="540.00" stroke="#333" stroke-width="2"/><line x1="60.00" y1="60.00" x2="60.00" y2="540.00" stroke="#333" stroke-width="2"/><text x="60.00" y="560.00" text-anchor="middle" font-size="11" fill="#666">-6.0</text><text x="216.00" y="560.00" text-anchor="middle" font-size="11" fill="#666">8.4</text><text x="372.00" y="560.00" text-anchor="middle" font-size="11" fill="#666">22.8</text><text x="528.00" y="560.00" text-anchor="middle" font-size="11" fill="#666">37.2</text><text x="684.00" y="560.00" text-anchor="middle" font-size="11" fill="#666">51.6</text><text x="840.00" y="560.00" text-anchor="middle" font-size="11" fill="#666">66.0</text><text x="50.00" y="544.00" text-anchor="end" font-size="11" fill="#666">9.8</text><text x="50.00" y="448.00" text-anchor="end" font-size="11" fill="#666">13.9</text><text x="50.00" y="352.00" text-anchor="end" font-size="11" fill="#666">18.0</text><text x="50.00" y="256.00" text-anchor="end" font-size="11" fill="#666">22.0</text><text x="50.00" y="160.00" text-anchor="end" font-size="11" fill="#666">26.1</text><text x="50.00" y="64.00" text-anchor="end" font-size="11" fill="#666">30.2</text><text x="450.00" y="580.00" text-anchor="middle" font-size="12" fill="#333">Time (seconds)</text><text x="20.00" y="300.00" text-anchor="middle" font-size="12" fill="#333" transform="rotate(-90 20.00 300.00)">Latency (ms)</text><path d="M 125.00 476.47 L 179.17 460.00 L 233.33 422.35 L 287.50 500.00 L 341.67 412.94 L 395.83 335.29 L 450.00 234.12 L 504.17 100.00 L 558.33 177.65 L 612.50 304.71 L 666.67 382.35 L 720.83 436.47 L 775.00 452.94" stroke="#3b82f6" stroke-width="2" fill="none"/><circle cx="125.00" cy="476.47" r="3" fill="#3b82f6"/><circle cx="179.17" cy="460.00" r="3" fill="#3b82f6"/><circle cx="233.33" cy="422.35" r="3" fill="#3b82f6"/><circle cx="287.50" cy="500.00" r="3" fill="#3b82f6"/><circle cx="341.67" cy="412.94" r="3" fill="#3b82f6"/><circle cx="395.83" cy="335.29" r="3" fill="#3b82f6"/><circle cx="450.00" cy="234.12" r="3" fill="#3b82f6"/><circle cx="504.17" cy="100.00" r="3" fill="#3b82f6"/><circle cx="558.33" cy="177.65" r="3" fill="#3b82f6"/><circle cx="612.50" cy="304.71" r="3" fill="#3b82f6"/><circle cx="666.67" cy="382.35" r="3" fill="#3b82f6"/><circle cx="720.83" cy="436.47" r="3" fill="#3b82f6"/><circle cx="775.00" cy="452.94" r="3" fill="#3b82f6"/></svg>